<svg xmlns="http://www.w3.org/2000/svg" viewBox="0 0 24 24"><path fill="#ffca28" d="M21.76,8.35A1,1,0,0,0,21,8H3A1,1,0,0,0,2,9.16L3.74,19.49a3,3,0,0,0,3,2.51H17.31a3,3,0,0,0,3-2.51L22,9.16A1,1,0,0,0,21.76,8.35Z"/><path fill="#edab06" d="M8.13,7a1,1,0,0,1-1-1.25,5,5,0,0,1,9.68,0,1,1,0,0,1-1.94.5,3,3,0,0,0-5.81,0A1,1,0,0,1,8.13,7Z"/><path fill="#fffde7" d="M16 14H8a1 1 0 0 1 0-2h8a1 1 0 0 1 0 2zM15 18H9a1 1 0 0 1 0-2h6a1 1 0 0 1 0 2z"/><path fill="#073387" d="M17.31 22H6.69a3 3 0 0 1-2.95-2.51L2 9.16A1 1 0 0 1 3 8H21a1 1 0 0 1 1 1.16L20.26 19.49A3 3 0 0 1 17.31 22zM4.18 10l1.53 9.16a1 1 0 0 0 1 .84H17.31a1 1 0 0 0 1-.84L19.82 10zM8.13 7a1 1 0 0 1-1-1.25 5 5 0 0 1 9.68 0 1 1 0 0 1-1.94.5 3 3 0 0 0-5.81 0A1 1 0 0 1 8.13 7z"/></svg>